C:\Users\Nick\Projects\MRSDeviceOpt\results\experiments\subject01\walk3\expdata\ground_reaction.mot
version=1
nRows=27
nColumns=19
inDegrees=no
endheader
time	ground_force_r_vx	ground_force_r_vy	ground_force_r_vz	ground_force_r_px	ground_force_r_py	ground_force_r_pz	ground_force_l_vx	ground_force_l_vy	ground_force_l_vz	ground_force_l_px	ground_force_l_py	ground_force_l_pz	ground_torque_r_x	ground_torque_r_y	ground_torque_r_z	ground_torque_l_x	ground_torque_l_y	ground_torque_l_z
4.040000	-23.468250	287.684357	6.567539	1.063417	0.000000	-0.419705	147.794693	573.943848	11.379267	0.569904	0.000000	-0.541514	0.000000	-2.774272	0.000000	0.000000	-2.307642	0.000000
4.041000	-25.872738	293.180359	5.749230	1.063250	0.000000	-0.420132	146.703583	565.790833	10.954691	0.568936	0.000000	-0.541449	0.000000	-2.854934	0.000000	0.000000	-2.339186	0.000000
4.042000	-28.154810	298.932159	4.891601	1.063064	0.000000	-0.420544	145.578232	557.537231	10.508073	0.567978	0.000000	-0.541385	0.000000	-2.932551	0.000000	0.000000	-2.368345	0.000000
4.043000	-30.314510	304.953583	4.009743	1.062863	0.000000	-0.420939	144.420868	549.183411	10.033945	0.567029	0.000000	-0.541319	0.000000	-3.006520	0.000000	0.000000	-2.394869	0.000000
4.044000	-32.353786	311.256134	3.119233	1.062647	0.000000	-0.421316	143.233078	540.729919	9.527494	0.566090	0.000000	-0.541254	0.000000	-3.076269	0.000000	0.000000	-2.418523	0.000000
4.045000	-34.276371	317.848663	2.235737	1.062420	0.000000	-0.421675	142.015869	532.177429	8.984725	0.565159	0.000000	-0.541189	0.000000	-3.141270	0.000000	0.000000	-2.439088	0.000000
4.046000	-36.087692	324.737549	1.374618	1.062184	0.000000	-0.422015	140.769653	523.526978	8.402596	0.564236	0.000000	-0.541125	0.000000	-3.201037	0.000000	0.000000	-2.456366	0.000000
4.047000	-37.794750	331.926514	0.550552	1.061942	0.000000	-0.422335	139.494415	514.780212	7.779131	0.563322	0.000000	-0.541061	0.000000	-3.255136	0.000000	0.000000	-2.470176	0.000000
4.048000	-39.405983	339.416595	-0.222836	1.061696	0.000000	-0.422637	138.189667	505.939484	7.113515	0.562414	0.000000	-0.540998	0.000000	-3.303185	0.000000	0.000000	-2.480361	0.000000
4.049000	-40.931141	347.206299	-0.933298	1.061449	0.000000	-0.422918	136.854660	497.007843	6.406143	0.561514	0.000000	-0.540935	0.000000	-3.344856	0.000000	0.000000	-2.486788	0.000000
4.050000	-42.381123	355.291504	-1.570260	1.061205	0.000000	-0.423181	135.488312	487.989288	5.658641	0.560620	0.000000	-0.540874	0.000000	-3.379883	0.000000	0.000000	-2.489346	0.000000
4.051000	-43.767788	363.665588	-2.125064	1.060965	0.000000	-0.423425	134.089417	478.888641	4.873868	0.559734	0.000000	-0.540813	0.000000	-3.408056	0.000000	0.000000	-2.487950	0.000000
4.052000	-45.103764	372.319672	-2.591167	1.060733	0.000000	-0.423650	132.656647	469.711670	4.055867	0.558855	0.000000	-0.540754	0.000000	-3.429226	0.000000	0.000000	-2.482541	0.000000
4.053000	-46.402199	381.242584	-2.964284	1.060511	0.000000	-0.423858	131.188614	460.464966	3.209798	0.557982	0.000000	-0.540696	0.000000	-3.443308	0.000000	0.000000	-2.473086	0.000000
4.054000	-47.676533	390.421265	-3.242482	1.060300	0.000000	-0.424048	129.683990	451.155975	2.341842	0.557118	0.000000	-0.540640	0.000000	-3.450272	0.000000	0.000000	-2.459578	0.000000
4.055000	-48.940224	399.840851	-3.426218	1.060103	0.000000	-0.424223	128.141434	441.792816	1.459073	0.556261	0.000000	-0.540585	0.000000	-3.450150	0.000000	0.000000	-2.442035	0.000000
4.056000	-50.206482	409.484985	-3.518323	1.059921	0.000000	-0.424382	126.559738	432.384186	0.569318	0.555412	0.000000	-0.540532	0.000000	-3.443033	0.000000	0.000000	-2.420498	0.000000
4.057000	-51.488022	419.336212	-3.523938	1.059756	0.000000	-0.424527	124.937775	422.939240	-0.319007	0.554572	0.000000	-0.540481	0.000000	-3.429065	0.000000	0.000000	-2.395034	0.000000
4.058000	-52.796799	429.376068	-3.450399	1.059609	0.000000	-0.424659	123.274544	413.467438	-1.197073	0.553742	0.000000	-0.540431	0.000000	-3.408442	0.000000	0.000000	-2.365733	0.000000
4.059000	-54.143784	439.585602	-3.307072	1.059479	0.000000	-0.424779	121.569160	403.978394	-2.055826	0.552922	0.000000	-0.540383	0.000000	-3.381412	0.000000	0.000000	-2.332704	0.000000
4.060000	-55.538784	449.945557	-3.105140	1.059369	0.000000	-0.424888	119.820877	394.481720	-2.886171	0.552113	0.000000	-0.540337	0.000000	-3.348266	0.000000	0.000000	-2.296078	0.000000
4.061000	-56.990280	460.436646	-2.857350	1.059277	0.000000	-0.424986	118.029060	384.986908	-3.679167	0.551318	0.000000	-0.540293	0.000000	-3.309339	0.000000	0.000000	-2.256003	0.000000
4.062000	-58.505318	471.039856	-2.577717	1.059204	0.000000	-0.425076	116.193199	375.503326	-4.426210	0.550536	0.000000	-0.540251	0.000000	-3.265002	0.000000	0.000000	-2.212643	0.000000
4.063000	-60.089439	481.736542	-2.281186	1.059149	0.000000	-0.425158	114.312881	366.039948	-5.119217	0.549769	0.000000	-0.540211	0.000000	-3.215661	0.000000	0.000000	-2.166175	0.000000
4.064000	-61.746662	492.508728	-1.983270	1.059111	0.000000	-0.425233	112.387802	356.605438	-5.750786	0.549019	0.000000	-0.540173	0.000000	-3.161747	0.000000	0.000000	-2.116790	0.000000
4.065000	-63.479477	503.338959	-1.699656	1.059090	0.000000	-0.425301	110.417732	347.208099	-6.314350	0.548287	0.000000	-0.540137	0.000000	-3.103718	0.000000	0.000000	-2.064687	0.000000
4.066000	-65.288918	514.210571	-1.445801	1.059085	0.000000	-0.425364	108.402550	337.855743	-6.804307	0.547575	0.000000	-0.540103	0.000000	-3.042046	0.000000	0.000000	-2.010073	0.000000
